<svg xmlns="http://www.w3.org/2000/svg" style="display: none;">
  <!-- Card Symbols -->
  <symbol id="10" viewBox="0 0 24 24">
    <rect x="2" y="2" width="20" height="20" rx="2" fill="#4a90e2" stroke="#2171cd" stroke-width="2"/>
    <text x="12" y="16" text-anchor="middle" font-size="12" fill="#ffffff" font-weight="bold">10</text>
  </symbol>

  <symbol id="J" viewBox="0 0 24 24">
    <rect x="2" y="2" width="20" height="20" rx="2" fill="#4a90e2" stroke="#2171cd" stroke-width="2"/>
    <text x="12" y="16" text-anchor="middle" font-size="12" fill="#ffffff" font-weight="bold">J</text>
  </symbol>

  <symbol id="Q" viewBox="0 0 24 24">
    <rect x="2" y="2" width="20" height="20" rx="2" fill="#4a90e2" stroke="#2171cd" stroke-width="2"/>
    <text x="12" y="16" text-anchor="middle" font-size="12" fill="#ffffff" font-weight="bold">Q</text>
  </symbol>

  <symbol id="K" viewBox="0 0 24 24">
    <rect x="2" y="2" width="20" height="20" rx="2" fill="#4a90e2" stroke="#2171cd" stroke-width="2"/>
    <text x="12" y="16" text-anchor="middle" font-size="12" fill="#ffffff" font-weight="bold">K</text>
  </symbol>

  <symbol id="A" viewBox="0 0 24 24">
    <rect x="2" y="2" width="20" height="20" rx="2" fill="#4a90e2" stroke="#2171cd" stroke-width="2"/>
    <text x="12" y="16" text-anchor="middle" font-size="12" fill="#ffffff" font-weight="bold">A</text>
  </symbol>

  <!-- Dog House (Wild) -->
  <symbol id="wild" viewBox="0 0 24 24">
    <path d="M12 3L4 9v12h16V9l-8-6z" fill="#ff9f43"/>
    <path d="M8 13h8v8H8z" fill="#d35400"/>
    <path d="M10 17h4v4h-4z" fill="#95a5a6"/>
    <text x="12" y="11" text-anchor="middle" font-size="4" fill="#ffffff" font-weight="bold">WILD</text>
  </symbol>

  <!-- Bone (Scatter) -->
  <symbol id="scatter" viewBox="0 0 24 24">
    <path d="M4 8c0-2.2 1.8-4 4-4s4 1.8 4 4v8c0 2.2 1.8 4 4 4s4-1.8 4-4-1.8-4-4-4h-8c-2.2 0-4 1.8-4 4" 
          fill="#ffffff" stroke="#95a5a6" stroke-width="2"/>
    <text x="12" y="22" text-anchor="middle" font-size="4" fill="#34495e">SCATTER</text>
  </symbol>

  <!-- Dogs -->
  <symbol id="dog1" viewBox="0 0 24 24">
    <circle cx="12" cy="12" r="10" fill="#f39c12"/>
    <circle cx="9" cy="10" r="1.5" fill="#2c3e50"/>
    <circle cx="15" cy="10" r="1.5" fill="#2c3e50"/>
    <path d="M9 15c3 2 6 0 6 0" stroke="#2c3e50" stroke-width="1.5" fill="none"/>
  </symbol>

  <symbol id="dog2" viewBox="0 0 24 24">
    <circle cx="12" cy="12" r="10" fill="#e74c3c"/>
    <circle cx="9" cy="10" r="1.5" fill="#2c3e50"/>
    <circle cx="15" cy="10" r="1.5" fill="#2c3e50"/>
    <path d="M8 14c4 4 8 0 8 0" stroke="#2c3e50" stroke-width="1.5" fill="none"/>
  </symbol>

  <symbol id="dog3" viewBox="0 0 24 24">
    <circle cx="12" cy="12" r="10" fill="#9b59b6"/>
    <circle cx="9" cy="10" r="1.5" fill="#2c3e50"/>
    <circle cx="15" cy="10" r="1.5" fill="#2c3e50"/>
    <path d="M10 15s2 2 4 0" stroke="#2c3e50" stroke-width="1.5" fill="none"/>
  </symbol>

  <!-- Toys -->
  <symbol id="toy1" viewBox="0 0 24 24">
    <circle cx="12" cy="12" r="10" fill="#3498db"/>
    <path d="M12 4C7.6 4 4 7.6 4 12s3.6 8 8 8 8-3.6 8-8-3.6-8-8-8zm0 14c-3.3 0-6-2.7-6-6s2.7-6 6-6 6 2.7 6 6-2.7 6-6 6z"
          fill="#2980b9"/>
  </symbol>

  <symbol id="toy2" viewBox="0 0 24 24">
    <rect x="4" y="8" width="16" height="8" rx="4" fill="#e74c3c"/>
    <circle cx="8" cy="12" r="3" fill="#c0392b"/>
    <circle cx="16" cy="12" r="3" fill="#c0392b"/>
  </symbol>

  <!-- Existing Symbols -->
  <symbol id="house" viewBox="0 0 24 24">
    <path d="M12 3L4 9v12h16V9l-8-6zm6 16h-3v-6H9v6H6v-9l6-4.5 6 4.5v9z"/>
  </symbol>

  <symbol id="bone" viewBox="0 0 24 24">
    <path d="M8 3C6.34 3 5 4.34 5 6c0 1.66 1.34 3 3 3h8c1.66 0 3-1.34 3-3 0-1.66-1.34-3-3-3H8zm0 2h8c.55 0 1 .45 1 1s-.45 1-1 1H8c-.55 0-1-.45-1-1s.45-1 1-1z"/>
  </symbol>

  <symbol id="collar" viewBox="0 0 24 24">
    <circle cx="12" cy="12" r="8"/>
    <circle cx="12" cy="12" r="3" fill="white"/>
  </symbol>

  <symbol id="paw" viewBox="0 0 24 24">
    <path d="M12 2C6.48 2 2 6.48 2 12s4.48 10 10 10 10-4.48 10-10S17.52 2 12 2zm0 18c-4.41 0-8-3.59-8-8s3.59-8 8-8 8 3.59 8 8-3.59 8-8 8z"/>
    <circle cx="12" cy="12" r="2"/>
    <circle cx="12" cy="8" r="2"/>
    <circle cx="8" cy="12" r="2"/>
    <circle cx="16" cy="12" r="2"/>
  </symbol>

  <symbol id="leash" viewBox="0 0 24 24">
    <path d="M12 2C6.48 2 2 6.48 2 12s4.48 10 10 10 10-4.48 10-10S17.52 2 12 2zm0 18c-4.41 0-8-3.59-8-8s3.59-8 8-8 8 3.59 8 8-3.59 8-8 8z"/>
    <path d="M12 6v12" stroke="currentColor" stroke-width="2"/>
  </symbol>
</svg>