<svg xmlns="http://www.w3.org/2000/svg" style="display: none;">
  <symbol id="dog" viewBox="0 0 24 24">
    <path d="M12 2C6.48 2 2 6.48 2 12s4.48 10 10 10 10-4.48 10-10S17.52 2 12 2zm0 18c-4.41 0-8-3.59-8-8s3.59-8 8-8 8 3.59 8 8-3.59 8-8 8z"/>
    <circle cx="8" cy="9" r="1"/>
    <circle cx="16" cy="9" r="1"/>
    <path d="M12 16c-1.48 0-2.75-.81-3.45-2h6.9c-.7 1.19-1.97 2-3.45 2z"/>
  </symbol>
  
  <symbol id="house" viewBox="0 0 24 24">
    <path d="M12 3L4 9v12h16V9l-8-6zm6 16h-3v-6H9v6H6v-9l6-4.5 6 4.5v9z"/>
  </symbol>
  
  <symbol id="bone" viewBox="0 0 24 24">
    <path d="M8 3C6.34 3 5 4.34 5 6c0 1.66 1.34 3 3 3h8c1.66 0 3-1.34 3-3 0-1.66-1.34-3-3-3H8zm0 2h8c.55 0 1 .45 1 1s-.45 1-1 1H8c-.55 0-1-.45-1-1s.45-1 1-1z"/>
  </symbol>
  
  <symbol id="collar" viewBox="0 0 24 24">
    <circle cx="12" cy="12" r="8"/>
    <circle cx="12" cy="12" r="3" fill="white"/>
  </symbol>
  
  <symbol id="paw" viewBox="0 0 24 24">
    <path d="M12 2C6.48 2 2 6.48 2 12s4.48 10 10 10 10-4.48 10-10S17.52 2 12 2zm0 18c-4.41 0-8-3.59-8-8s3.59-8 8-8 8 3.59 8 8-3.59 8-8 8z"/>
    <circle cx="12" cy="12" r="2"/>
    <circle cx="12" cy="8" r="2"/>
    <circle cx="8" cy="12" r="2"/>
    <circle cx="16" cy="12" r="2"/>
  </symbol>
</svg>
